# xmcd
#
# Track frame offsets:
#	150
#	21698
#	45198
#	66594
#	85832
#	107785
#	140355
#	164462
#	180125
#	205025
#	224036
#
# Disc length: 3322 seconds
#
# Revision: 1
# Processed by: cddbd v1.5.2PL0 Copyright (c) Steve Scherf et al.
# Submitted via: audiograbber 1.83.01
#
DISCID=9c0cf80b
DTITLE=Hundred Seventy Split - Tracks
DYEAR=2016
DGENRE=Blues
TTITLE0=It's Coming Back Around
TTITLE1=The Game
TTITLE2=If You Make It To The Top
TTITLE3=I Grew Up On Muddy Waters
TTITLE4=Lonely
TTITLE5=Gravedigger
TTITLE6=Looking For A Sign
TTITLE7=She's Got The Mojo
TTITLE8=Tail Lights
TTITLE9=The Final Curtain
TTITLE10=You Can't Drink It
EXTD=
EXTT0=
EXTT1=
EXTT2=
EXTT3=
EXTT4=
EXTT5=
EXTT6=
EXTT7=
EXTT8=
EXTT9=
EXTT10=
PLAYORDER=
